<svg xmlns="http://www.w3.org/2000/svg" width="24" height="24" viewBox="0 0 24 24" stroke="none" fill="currentColor">
    <path d="M6 3.25A0.75 0.75 0 0 0 5.25 4L5.25 12 5.25 20A0.75 0.75 0 0 0 6 20.75L15 20.75C17.61 20.75 19.75 18.61 19.75 16 19.75 14.08 18.6 12.43 16.96 11.69 18.04 10.81 18.75 9.49 18.75 8 18.75 5.39 16.61 3.25 14 3.25L6 3.25zM6.75 4.75L14 4.75C15.8 4.75 17.25 6.2 17.25 8 17.25 9.8 15.8 11.25 14 11.25L6.75 11.25 6.75 4.75zM6.75 12.75L14 12.75 15 12.75C16.8 12.75 18.25 14.2 18.25 16 18.25 17.8 16.8 19.25 15 19.25L6.75 19.25 6.75 12.75z"/>
</svg>
