<svg xmlns="http://www.w3.org/2000/svg" width="24" height="24" viewBox="0 0 24 24" stroke="none" fill="currentColor">
    <path d="M3 5.25A0.75 0.75 0 1 0 3 6.75L3.01 6.75A0.75 0.75 0 1 0 3.01 5.25L3 5.25zM8 5.25A0.75 0.75 0 1 0 8 6.75L21 6.75A0.75 0.75 0 1 0 21 5.25L8 5.25zM3 11.25A0.75 0.75 0 1 0 3 12.75L3.01 12.75A0.75 0.75 0 1 0 3.01 11.25L3 11.25zM8 11.25A0.75 0.75 0 1 0 8 12.75L21 12.75A0.75 0.75 0 1 0 21 11.25L8 11.25zM3 17.25A0.75 0.75 0 1 0 3 18.75L3.01 18.75A0.75 0.75 0 1 0 3.01 17.25L3 17.25zM8 17.25A0.75 0.75 0 1 0 8 18.75L21 18.75A0.75 0.75 0 1 0 21 17.25L8 17.25z"/>
</svg>