<svg xmlns="http://www.w3.org/2000/svg" width="24" height="24" viewBox="0 0 24 24" stroke="none" fill="currentColor">
    <path d="M5 2.25C3.49 2.25 2.25 3.49 2.25 5L2.25 19C2.25 20.51 3.49 21.75 5 21.75L19 21.75C20.51 21.75 21.75 20.51 21.75 19L21.75 12A0.75 0.75 0 1 0 20.25 12L20.25 19C20.25 19.7 19.7 20.25 19 20.25L5 20.25C4.3 20.25 3.75 19.7 3.75 19L3.75 5C3.75 4.3 4.3 3.75 5 3.75L16 3.75A0.75 0.75 0 1 0 16 2.25L5 2.25zM21.98 3.24A0.75 0.75 0 0 0 21.47 3.47L12 12.94 9.53 10.47A0.75 0.75 0 1 0 8.47 11.53L11.47 14.53A0.75 0.75 0 0 0 12.53 14.53L22.53 4.53A0.75 0.75 0 0 0 21.98 3.24z"/>
</svg>