<svg xmlns="http://www.w3.org/2000/svg" width="24" height="24" viewBox="0 0 24 24" stroke="none" fill="currentColor">
    <path d="M11.99 2.24A0.75 0.75 0 0 0 11.88 2.25L5 2.25C3.49 2.25 2.25 3.49 2.25 5L2.25 11.88A0.75 0.75 0 0 0 2.25 12.12L2.25 19C2.25 20.51 3.49 21.75 5 21.75L11.88 21.75A0.75 0.75 0 0 0 12.12 21.75L19 21.75C20.13 21.75 21.11 21.05 21.53 20.07 21.67 19.74 21.75 19.38 21.75 19L21.75 12.12A0.75 0.75 0 0 0 21.75 11.88L21.75 5C21.75 3.49 20.51 2.25 19 2.25L12.12 2.25A0.75 0.75 0 0 0 11.99 2.24zM5 3.75L11.25 3.75 11.25 11.25 3.75 11.25 3.75 5C3.75 4.91 3.76 4.83 3.78 4.75 3.89 4.17 4.39 3.75 5 3.75zM12.75 3.75L19 3.75C19.7 3.75 20.25 4.3 20.25 5L20.25 11.25 12.75 11.25 12.75 3.75zM3.75 12.75L11.25 12.75 11.25 20.25 5 20.25C4.3 20.25 3.75 19.7 3.75 19L3.75 12.75zM12.75 12.75L20.25 12.75 20.25 19C20.25 19.7 19.7 20.25 19 20.25L12.75 20.25 12.75 12.75z"/>
</svg>