<svg xmlns="http://www.w3.org/2000/svg" width="24" height="24" viewBox="0 0 24 24" stroke="none" fill="currentColor">
    <path d="M16.71 1.24C15.43 1.29 14.1 1.82 12.95 2.93A0.75 0.75 0 0 0 12.94 2.94L11.22 4.65A0.75 0.75 0 1 0 12.28 5.71L13.99 4.01C15.03 3 16.12 2.67 17.15 2.74 18.19 2.81 19.19 3.3 19.95 4.06 20.71 4.82 21.2 5.82 21.27 6.86 21.34 7.89 21.01 8.98 20 10.02L17.01 13.01C15.17 14.85 12.16 14.63 10.6 12.55A0.75 0.75 0 1 0 9.4 13.45C11.49 16.24 15.6 16.54 18.07 14.07L21.07 11.07A0.75 0.75 0 0 0 21.08 11.06C22.35 9.75 22.86 8.2 22.77 6.76 22.67 5.31 22 3.99 21.01 3 20.02 2.01 18.69 1.34 17.25 1.24 17.07 1.23 16.89 1.23 16.71 1.24zM9.8 8.26C8.4 8.3 7.01 8.85 5.93 9.93L2.93 12.93A0.75 0.75 0 0 0 2.92 12.94C1.65 14.25 1.14 15.8 1.23 17.24 1.33 18.69 2 20.01 2.99 21 3.98 21.99 5.31 22.66 6.75 22.76 8.19 22.85 9.74 22.34 11.05 21.07A0.75 0.75 0 0 0 11.06 21.06L12.77 19.35A0.75 0.75 0 1 0 11.71 18.29L10.01 19.99C8.97 21 7.88 21.33 6.85 21.26 5.81 21.19 4.81 20.7 4.05 19.94 3.29 19.18 2.8 18.18 2.73 17.14 2.66 16.11 2.99 15.02 4 13.98L6.99 10.99C8.83 9.15 11.84 9.37 13.4 11.45A0.75 0.75 0 1 0 14.6 10.55C13.55 9.15 12 8.38 10.41 8.27 10.21 8.25 10.01 8.25 9.8 8.26z"/>
</svg>