<svg xmlns="http://www.w3.org/2000/svg" width="24" height="24" viewBox="0 0 24 24" stroke="none" fill="currentColor">
    <path d="M5 2.25C3.49 2.25 2.25 3.49 2.25 5L2.25 19C2.25 20.46 3.41 21.65 4.84 21.73A0.75 0.75 0 0 0 5 21.75 0.75 0.75 0 0 0 5.03 21.75L19 21.75C20.51 21.75 21.75 20.51 21.75 19L21.75 15.04A0.75 0.75 0 0 0 21.75 14.97L21.75 5C21.75 3.49 20.51 2.25 19 2.25L5 2.25zM5 3.75L19 3.75C19.71 3.75 20.25 4.29 20.25 5L20.25 13.19 16.53 9.47A0.75 0.75 0 0 0 15.99 9.25 0.75 0.75 0 0 0 15.47 9.47L4.72 20.22C4.15 20.1 3.75 19.61 3.75 19L3.75 5C3.75 4.29 4.29 3.75 5 3.75zM8.5 6.25C7.27 6.25 6.25 7.27 6.25 8.5 6.25 9.73 7.27 10.75 8.5 10.75 9.73 10.75 10.75 9.73 10.75 8.5 10.75 7.27 9.73 6.25 8.5 6.25zM8.5 7.75C8.92 7.75 9.25 8.08 9.25 8.5 9.25 8.92 8.92 9.25 8.5 9.25 8.08 9.25 7.75 8.92 7.75 8.5 7.75 8.08 8.08 7.75 8.5 7.75zM16 11.06L20.25 15.31 20.25 19C20.25 19.71 19.71 20.25 19 20.25L6.81 20.25 16 11.06z"/>
</svg>