<svg xmlns="http://www.w3.org/2000/svg" width="24" height="24" viewBox="0 0 24 24" stroke="none" fill="currentColor">
    <path d="M12 3.25C4.43 3.25 0.33 11.66 0.33 11.66A0.75 0.75 0 0 0 0.33 12.34C0.33 12.34 4.43 20.75 12 20.75 19.57 20.75 23.67 12.34 23.67 12.34A0.75 0.75 0 0 0 23.67 11.66C23.67 11.66 19.57 3.25 12 3.25zM12 4.75C18.14 4.75 21.76 11.39 22.09 12 21.76 12.61 18.14 19.25 12 19.25 5.86 19.25 2.24 12.61 1.91 12 2.24 11.39 5.86 4.75 12 4.75zM12 8.25C9.94 8.25 8.25 9.94 8.25 12 8.25 14.06 9.94 15.75 12 15.75 14.06 15.75 15.75 14.06 15.75 12 15.75 9.94 14.06 8.25 12 8.25zM12 9.75C13.25 9.75 14.25 10.75 14.25 12 14.25 13.25 13.25 14.25 12 14.25 10.75 14.25 9.75 13.25 9.75 12 9.75 10.75 10.75 9.75 12 9.75z"/>
</svg>