<svg viewBox="0 0 1024 1024" width="1024" height="1024" xmlns="http://www.w3.org/2000/svg" fill="none" stroke="none"><ellipse cx="512" cy="512" rx="496" ry="496" fill="#000" stroke="#fff" stroke-width="8"/><circle stroke="#fff" stroke-width="4" cx="512" cy="512" r="461.14"/><g fill="#fff"><path d="m512 16a496 496 0 0 0-2 0.07V126H386V32.57a496 496 0 0 0-4 0.9V126H258V86.6a496 496 0 0 0-4 2.29V126h-53.2a496 496 0 0 0-4.55 4H254V254H130v-58.06a496 496 0 0 0-4 5.26V254H89.11a496 496 0 0 0-2.45 4H126V382H33.92a496 496 0 0 0-1.02 4H126V510H16.1A496 496 0 0 0 16 512a496 496 0 0 0 0.07 2H126V638H32.57a496 496 0 0 0 0.9 4H126V766H86.61a496 496 0 0 0 2.29 4H126v53.2a496 496 0 0 0 4 4.55V770h124v124h-58.06a496 496 0 0 0 5.26 4H254v36.89a496 496 0 0 0 4 2.45V898h124v92.08a496 496 0 0 0 4 1.02V898h124v109.9a496 496 0 0 0 2 0.1 496 496 0 0 0 2-0.07V898h124v93.43a496 496 0 0 0 4-0.9V898h124v39.39a496 496 0 0 0 4-2.29V898h53.2a496 496 0 0 0 4.55-4H770V770h124v58.06a496 496 0 0 0 4-5.26V770h36.89a496 496 0 0 0 2.45-4H898V642h92.08a496 496 0 0 0 1.02-4H898V514h109.9a496 496 0 0 0 0.1-2 496 496 0 0 0-0.07-2H898V386h93.43a496 496 0 0 0-0.9-4H898V258h39.4a496 496 0 0 0-2.29-4H898v-53.2a496 496 0 0 0-4-4.55V254H770V130h58.06a496 496 0 0 0-5.26-4H770V89.11a496 496 0 0 0-4-2.45V126H642V33.92a496 496 0 0 0-4-1.02V126H514V16.1A496 496 0 0 0 512 16ZM258 130H382V254H258Zm128 0H510V254H386Zm128 0H638V254H514Zm128 0H766V254H642ZM130 258H254V382H130Zm128 0H382V382H258Zm128 0H510V382H386Zm128 0H638V382H514Zm128 0H766V382H642Zm128 0H894V382H770ZM130 386H254V510H130Zm128 0H382V510H258Zm128 0H510V510H386Zm128 0H638V510H514Zm128 0H766V510H642Zm128 0H894V510H770ZM130 514H254V638H130Zm128 0H382V638H258Zm128 0H510V638H386Zm128 0H638V638H514Zm128 0H766V638H642Zm128 0H894V638H770ZM130 642H254V766H130Zm128 0H382V766H258Zm128 0H510V766H386Zm128 0H638V766H514Zm128 0H766V766H642Zm128 0H894V766H770ZM258 770H382V894H258Zm128 0H510V894H386Zm128 0H638V894H514Zm128 0H766V894H642ZM512 16"/><path d="m512 16a496 496 0 0 0-4 0.14V252H260V85.46a496 496 0 0 0-8 4.59V252H90.33a496 496 0 0 0-4.9 8H252V508H16.2A496 496 0 0 0 16 512a496 496 0 0 0 0.14 4H252V764H85.46a496 496 0 0 0 4.59 8H252v161.67a496 496 0 0 0 8 4.9V772h248v235.8a496 496 0 0 0 4 0.2 496 496 0 0 0 4-0.14V772h248v166.54a496 496 0 0 0 8-4.59V772h161.67a496 496 0 0 0 4.9-8H772V516h235.8a496 496 0 0 0 0.2-4 496 496 0 0 0-0.14-4H772V260h166.54a496 496 0 0 0-4.59-8H772V90.33a496 496 0 0 0-8-4.9V252H516V16.2A496 496 0 0 0 512 16ZM260 260H508V508H260Zm256 0H764V508H516ZM260 516H508V764H260Zm256 0H764V764H516Z"/><path d="m164.22 158.57a496 496 0 0 0-5.46 5.86L506.34 512 158.57 859.78a496 496 0 0 0 5.86 5.46L512 517.66 859.78 865.43a496 496 0 0 0 5.46-5.86L517.66 512 865.43 164.22a496 496 0 0 0-5.86-5.46L512 506.34Z"/></g><g stroke="#fff" stroke-width="32" stroke-linecap="square"><path d="M256 256V768H768V256Z"/><path d="m384 512h256M512 384"/><path d="m512 384v256"/><path d="m384 640 256-256M384 384l256 256"/><path d="m384 384 256 256"/></g></svg>
